<svg width="268" height="50" viewBox="0 0 268 50" fill="none" xmlns="http://www.w3.org/2000/svg">
<path d="M107.787 22.9944C107.787 15.2949 104.375 5.35333 90.3772 5.35333H71.3767V40.3355H90.3772C104.866 40.3355 107.787 29.9441 107.787 22.997V22.9944ZM84.6326 31.5913V13.635H87.3101C90.5211 13.635 93.8438 14.7585 93.8438 22.8266C93.8438 30.8948 90.2779 31.6243 87.3101 31.6243L84.6326 31.5913ZM122.998 30.8388C122.998 26.3498 125.976 23.8917 129.666 23.8917C130.535 23.9197 131.396 24.0544 132.232 24.2959V13.8027C131.569 13.6426 130.892 13.5613 130.21 13.5562C126.056 13.5562 123.388 16.7997 122.433 20.0991H122.222V14.151H110.576V40.333H122.998V30.8388ZM142.999 30.7143H132.289V40.3991H143.078L143.001 30.7143H142.999ZM163.888 40.333L169.332 17.5521H169.665L175.397 40.333H189.653L197.963 5.45247H186.085L181.883 27.7402H181.705L176.327 5.45247H163.617L158.128 27.7402H157.93L153.773 5.45247H141.351L149.406 40.333H163.885H163.888ZM230.453 32.0844H213.219V26.6421H229.453V18.6528H213.219V13.6019H230.185V5.35333H199.951V40.3355H230.527L230.451 32.0869L230.453 32.0844ZM267.921 30.9609C267.921 25.4626 263.566 23.1622 260.144 22.6563V22.4428C262.082 22.1937 263.863 21.243 265.159 19.7636C266.452 18.2842 267.171 16.3803 267.176 14.4077C267.176 11.154 265.198 5.30503 254.364 5.30503H233.565V40.3305H253.699C258.111 40.3305 268 39.8373 268 30.9939L267.923 30.9609H267.921ZM246.131 12.4428H249.543C253.198 12.4428 254.243 14.3518 254.243 15.8109C254.243 16.8099 253.799 19.179 249.243 19.179H246.131V12.4453V12.4428ZM246.131 33.2384V26.0905H249.198C250.31 26.0905 254.454 26.0905 254.454 29.6365C254.454 30.8948 253.744 33.2384 249.486 33.2384H246.131ZM22.8766 15.4093L32.9984 9.70768L43.1749 15.4525C43.428 14.7534 43.5595 14.0188 43.5645 13.274C43.5645 8.78495 38.8423 5.10422 33.0431 5.10422C27.2439 5.10422 22.5217 8.76207 22.5217 13.274C22.5267 13.9985 22.6458 14.7204 22.8766 15.4067V15.4093ZM51.1106 21.5582L57.5004 23.119L56.1554 27.3945L65.8877 22.1301L50.1875 17.4504L51.1106 21.5582ZM43.567 49.9975L58.8329 31.3015L50.6888 26.3421L43.567 50V49.9975ZM42.5347 6.55313L45.4578 9.66192L53.2992 0H42.1873L46.3313 2.58007L42.5322 6.55313H42.5347ZM49.2793 14.8017L56.2348 13.3884L57.6691 18.4825L61.1258 7.41739L47.2147 11.9065L49.2818 14.8017H49.2793ZM7.05479 31.2989L22.3207 49.9949L15.2213 26.3371L7.05479 31.2964V31.2989ZM8.38733 23.1164L14.7771 21.5557L15.6878 17.4479L0 22.1301L9.73228 27.3945L8.38733 23.119V23.1164ZM9.66528 13.3859L16.6109 14.7992L18.6879 11.9039L4.77681 7.41739L8.23348 18.4825L9.66776 13.3884L9.66528 13.3859ZM23.3654 6.55058L19.5316 2.57753L23.7674 0H12.6554L20.4993 9.71784L23.3654 6.55313V6.55058ZM27.5219 16.0574L28.9115 21.3218H28.9884L30.8669 15.7117H35.2218L37.2095 21.3218H37.2765L38.3882 16.1362L32.9984 12.9487L27.5219 16.0574ZM47.6763 21.4438L41.9987 18.1673L39.954 24.4408H34.8868L32.9984 18.6833H32.9314L31.0083 24.4408H25.9188L23.8642 18.1774L18.1965 21.4311C18.1965 21.4311 16.1295 28.8282 24.0081 34.8983C26.0082 36.6167 28.2564 38.0173 30.6758 39.0519L30.3309 37.9969H35.5419L35.197 39.1179C37.6239 38.0961 39.8746 36.6904 41.8647 34.9542C49.6639 28.7595 47.7085 21.4413 47.7085 21.4413H47.6763V21.4438ZM36.1201 36.1896H29.7304L29.0405 34.0798H36.8174L36.1176 36.1896H36.1201ZM37.4427 32.2725H28.4995L27.8097 30.1627H38.1326L37.4427 32.2725ZM38.7207 28.3554H27.1993L26.5094 26.2456H39.3981L38.7207 28.3554Z" fill="#69B42E"/>
</svg>
